<svg xmlns="http://www.w3.org/2000/svg" width="211.51" height="66.913" viewBox="0 0 211.51 66.913">
  <g id="Grupo_400" data-name="Grupo 400" transform="translate(-73.812 -113.82)">
    <path id="Trazado_411" data-name="Trazado 411" d="M99.791,137.5l7.181,8.776q4.979,5.619,7.468,7.948a29.733,29.733,0,0,0,5.522,4.021,18.013,18.013,0,0,1-6.224.83,15.25,15.25,0,0,1-6.1-1.341,11.936,11.936,0,0,1-3.894-2.713q-3.064-3.255-3.607-3.958l-6.1-7.979-.192-.255q-2.3-2.745-2.681-3.128a3.828,3.828,0,0,0-2.841-.893h-.191l-1.755.127v12.128q.318,4.341,1.468,5.586a7.653,7.653,0,0,0,3.861,2.074h-17.9a8.9,8.9,0,0,0,2.01-1.308A6.632,6.632,0,0,0,77.8,154.64a8.268,8.268,0,0,0,.288-2.49v-.669l.1-29.14a8.306,8.306,0,0,0-.989-4.723,7.511,7.511,0,0,0-2.808-2.33l6.989.064q.382,0,.99-.032h.957l9.287-.256c.064,0,.213-.01.447-.031Q93.5,115,94.333,115q6.575,0,10.246,2.042a10.493,10.493,0,0,1,3.83,3.766,10.84,10.84,0,0,1-.863,12.352Q105.153,136.193,99.791,137.5Zm-13.468-20.14.1,19.438,3.383.127c.277.021.564.032.863.032q5.169,0,7.915-2.107,3.189-2.489,3.191-7.6a10.31,10.31,0,0,0-2.585-7.213,7.378,7.378,0,0,0-3.639-2.106,19.827,19.827,0,0,0-5.329-.7h-.256Z" fill="#fff"/>
    <path id="Trazado_412" data-name="Trazado 412" d="M130.25,152.247l.128-29.587v-1.4a8.434,8.434,0,0,0-.447-3.223,7.2,7.2,0,0,0-2.712-2.872h14.872a9.217,9.217,0,0,0-2.9,2.681,7.672,7.672,0,0,0-.542,2.457q-.192,2.17-.192,2.425v28.6l-.032.829q0,3.609,1.915,5.362a9.349,9.349,0,0,0,1.915,1.213h-15.16a7.274,7.274,0,0,0,2.457-2.521A8.6,8.6,0,0,0,130.25,152.247Z" fill="#fff"/>
    <path id="Trazado_413" data-name="Trazado 413" d="M152.219,154.831l-.286-8.936.893-.191a23.759,23.759,0,0,0,2.266,4.532,17.836,17.836,0,0,0,6.543,6,13.562,13.562,0,0,0,6.415,1.564,9.4,9.4,0,0,0,7.053-2.681,7.809,7.809,0,0,0,2.362-5.617q0-4.469-4.82-7.468a46.02,46.02,0,0,0-5.84-2.617q-8.457-3.32-12-7.246a9.361,9.361,0,0,1-2.266-6.511,10.506,10.506,0,0,1,5.649-9.733,17.428,17.428,0,0,1,8.713-2.107,23.367,23.367,0,0,1,9.671,2.107,5.572,5.572,0,0,0,2.074.574,2.24,2.24,0,0,0,2.011-1.117l.669.063.7,10.15-1.022.1a15.149,15.149,0,0,0-2.17-4.149,14,14,0,0,0-4.979-3.99,13.589,13.589,0,0,0-6.191-1.532,7.007,7.007,0,0,0-5.873,2.777,7.114,7.114,0,0,0-1.5,4.4,6.026,6.026,0,0,0,2.137,4.883,16.844,16.844,0,0,0,5.235,2.841l2.585.958a39.573,39.573,0,0,1,10.66,5.393,10.5,10.5,0,0,1,2.936,3.8,11.093,11.093,0,0,1,1.117,4.915,13.111,13.111,0,0,1-2.681,7.883q-4.469,6.1-14.457,6.1a23.42,23.42,0,0,1-9.384-1.756A27.179,27.179,0,0,1,152.219,154.831Z" fill="#fff"/>
    <path id="Trazado_414" data-name="Trazado 414" d="M194.711,154.831l-.287-8.936.894-.191a23.758,23.758,0,0,0,2.265,4.532,17.844,17.844,0,0,0,6.543,6,13.562,13.562,0,0,0,6.415,1.564,9.407,9.407,0,0,0,7.054-2.681,7.813,7.813,0,0,0,2.362-5.617q0-4.469-4.82-7.468a46.091,46.091,0,0,0-5.84-2.617q-8.458-3.32-12-7.246a9.365,9.365,0,0,1-2.266-6.511,10.507,10.507,0,0,1,5.65-9.733,17.425,17.425,0,0,1,8.712-2.107,23.367,23.367,0,0,1,9.671,2.107,5.572,5.572,0,0,0,2.074.574,2.24,2.24,0,0,0,2.011-1.117l.67.063.7,10.15-1.021.1a15.176,15.176,0,0,0-2.17-4.149,14.01,14.01,0,0,0-4.979-3.99,13.6,13.6,0,0,0-6.192-1.532,7.005,7.005,0,0,0-5.872,2.777,7.109,7.109,0,0,0-1.5,4.4,6.023,6.023,0,0,0,2.138,4.883,16.826,16.826,0,0,0,5.234,2.841l2.586.958a39.6,39.6,0,0,1,10.66,5.393,10.512,10.512,0,0,1,2.936,3.8,11.106,11.106,0,0,1,1.116,4.915,13.1,13.1,0,0,1-2.681,7.883q-4.467,6.1-14.457,6.1a23.415,23.415,0,0,1-9.383-1.756A27.178,27.178,0,0,1,194.711,154.831Z" fill="#fff"/>
    <path id="Trazado_415" data-name="Trazado 415" d="M262.1,114.2q11.171,0,17.936,7.979a21.59,21.59,0,0,1,5.17,14.426,22.407,22.407,0,0,1-3.35,12.128,21.853,21.853,0,0,1-9.033,8.2,27.07,27.07,0,0,1-12.159,2.808,26.424,26.424,0,0,1-10.692-2.2,21.445,21.445,0,0,1-10.086-8.65,22.233,22.233,0,0,1-3.255-11.936,20.959,20.959,0,0,1,7.532-16.533,25.092,25.092,0,0,1,9.288-4.946A29.658,29.658,0,0,1,262.1,114.2Zm-1.277,2.3a11.189,11.189,0,0,0-7.6,2.809q-6.735,5.873-6.734,17.712a30.183,30.183,0,0,0,1.915,10.916,15.623,15.623,0,0,0,5.457,7.181,12.363,12.363,0,0,0,7.5,2.49,12.493,12.493,0,0,0,6.542-1.884,15.949,15.949,0,0,0,6.352-7.883,28.212,28.212,0,0,0,2.01-10.947,26.127,26.127,0,0,0-2.84-12.192,15.468,15.468,0,0,0-6.064-6.511A12.869,12.869,0,0,0,260.82,116.5Z" fill="#fff"/>
    <path id="Trazado_416" data-name="Trazado 416" d="M80.829,176.585a2.266,2.266,0,0,1-.323,3.2,3.526,3.526,0,0,1-2.325.7H73.812v-.309a3.275,3.275,0,0,0,.751-.067.708.708,0,0,0,.4-.243,1.08,1.08,0,0,0,.191-.5,6.385,6.385,0,0,0,.05-.912v-4.78a6.4,6.4,0,0,0-.05-.912,1.037,1.037,0,0,0-.191-.492.739.739,0,0,0-.4-.236,3.286,3.286,0,0,0-.751-.066v-.308h3.956a3.169,3.169,0,0,1,2.1.624,1.98,1.98,0,0,1,.743,1.581,1.851,1.851,0,0,1-.315,1.037,2.564,2.564,0,0,1-.832.788A2.775,2.775,0,0,1,80.829,176.585Zm-4.443-1.075H77.7a1.53,1.53,0,0,0,1.206-.463,1.714,1.714,0,0,0,.411-1.184,1.748,1.748,0,0,0-.411-1.191A1.521,1.521,0,0,0,77.7,172.2h-1.31Zm3.177,3.884a2,2,0,0,0,.486-1.383,2.043,2.043,0,0,0-.486-1.4,1.763,1.763,0,0,0-1.4-.552h-1.78v2.177a6.068,6.068,0,0,0,.052.9,1.011,1.011,0,0,0,.192.5.732.732,0,0,0,.4.236,3.269,3.269,0,0,0,.75.066h.382A1.772,1.772,0,0,0,79.563,179.394Z" fill="#fff"/>
    <path id="Trazado_417" data-name="Trazado 417" d="M90.947,180.174a3.291,3.291,0,0,0,.752-.067.708.708,0,0,0,.4-.243,1.08,1.08,0,0,0,.191-.5,6.24,6.24,0,0,0,.05-.912v-4.78a6.258,6.258,0,0,0-.05-.912,1.037,1.037,0,0,0-.191-.492.74.74,0,0,0-.4-.236,3.3,3.3,0,0,0-.752-.066v-.308h6.707l.133,1.94h-.309L97.4,173.3a1.638,1.638,0,0,0-.469-.876A2.231,2.231,0,0,0,95.7,172.2H93.522v3.339h.736a5.924,5.924,0,0,0,.911-.052,1,1,0,0,0,.493-.191.74.74,0,0,0,.235-.411,3.31,3.31,0,0,0,.067-.758h.308V177.5h-.308a3.307,3.307,0,0,0-.067-.757.75.75,0,0,0-.235-.412,1.037,1.037,0,0,0-.493-.191,6.192,6.192,0,0,0-.911-.052h-.736v2.148a6.069,6.069,0,0,0,.052.9,1,1,0,0,0,.191.5.732.732,0,0,0,.4.236,3.269,3.269,0,0,0,.75.066h1.264a2.207,2.207,0,0,0,1.245-.235,1.605,1.605,0,0,0,.463-.882l.074-.295h.308l-.117,1.957H90.947Z" fill="#fff"/>
    <path id="Trazado_418" data-name="Trazado 418" d="M109.04,179.056a1.341,1.341,0,0,0-.147.53.465.465,0,0,0,.308.447,2.541,2.541,0,0,0,.986.141v.309h-3.441v-.309a3.954,3.954,0,0,0,.719-.052,1.031,1.031,0,0,0,.428-.176,1.082,1.082,0,0,0,.279-.339c.078-.142.177-.35.3-.625l.043-.087,3.237-7.487h.191l3.251,7.487.043.087c.118.275.217.483.295.625a1.082,1.082,0,0,0,.279.339,1.019,1.019,0,0,0,.419.176,3.843,3.843,0,0,0,.713.052v.309h-4.074v-.309a2.537,2.537,0,0,0,.986-.141.462.462,0,0,0,.309-.447,1.346,1.346,0,0,0-.148-.53l-.706-1.632h-3.559Zm2.471-5.723-1.53,3.546h3.074Z" fill="#fff"/>
    <path id="Trazado_419" data-name="Trazado 419" d="M132.242,172.768a1.015,1.015,0,0,0-.191-.5.739.739,0,0,0-.411-.236,3.4,3.4,0,0,0-.758-.066v-.308h3.441v.308a3.276,3.276,0,0,0-.75.066.782.782,0,0,0-.412.236.979.979,0,0,0-.2.5,6.077,6.077,0,0,0-.052.9v3.53a3.375,3.375,0,0,1-1,2.6,3.914,3.914,0,0,1-5.075,0,3.385,3.385,0,0,1-1-2.6v-3.53a6.07,6.07,0,0,0-.052-.912,1.007,1.007,0,0,0-.191-.492.735.735,0,0,0-.4-.236,3.266,3.266,0,0,0-.749-.066v-.308h3.971v.308a3.3,3.3,0,0,0-.751.066.74.74,0,0,0-.4.236,1.037,1.037,0,0,0-.192.492,6.35,6.35,0,0,0-.052.912v3.6a2.833,2.833,0,0,0,.707,2.088,2.524,2.524,0,0,0,1.868.706,2.516,2.516,0,0,0,2.707-2.794v-3.6A6.079,6.079,0,0,0,132.242,172.768Z" fill="#fff"/>
    <path id="Trazado_420" data-name="Trazado 420" d="M152.284,173.643h-.311l-.072-.295a1.651,1.651,0,0,0-.471-.889,2.231,2.231,0,0,0-1.236-.228h-1.927v6.221a6.1,6.1,0,0,0,.052.9,1.016,1.016,0,0,0,.2.507.748.748,0,0,0,.412.243,3.259,3.259,0,0,0,.75.067v.309h-3.987v-.309a3.278,3.278,0,0,0,.752-.067.741.741,0,0,0,.411-.243,1.026,1.026,0,0,0,.2-.507,6.267,6.267,0,0,0,.051-.9v-6.221h-1.926a2.227,2.227,0,0,0-1.236.228,1.638,1.638,0,0,0-.471.889l-.074.295h-.309l.133-1.985h8.929Z" fill="#fff"/>
    <path id="Trazado_421" data-name="Trazado 421" d="M166.051,178.452a6.051,6.051,0,0,0,.052.912,1.048,1.048,0,0,0,.191.5.7.7,0,0,0,.4.243,3.249,3.249,0,0,0,.749.067v.309h-3.971v-.309a3.255,3.255,0,0,0,.749-.067.707.707,0,0,0,.406-.243,1.069,1.069,0,0,0,.191-.5,6.215,6.215,0,0,0,.051-.912v-1.426l-2.442-3.78a3.315,3.315,0,0,0-.926-1.008,2.294,2.294,0,0,0-1.206-.272v-.308h4.191v.308a2.016,2.016,0,0,0-.808.118.375.375,0,0,0-.25.352,1.323,1.323,0,0,0,.265.647l2.118,3.237,2.147-3.237a1.479,1.479,0,0,0,.294-.691c0-.283-.363-.426-1.089-.426v-.308h3.443v.308a2.247,2.247,0,0,0-1.242.265,3.775,3.775,0,0,0-.891,1.015l-2.427,3.676Z" fill="#fff"/>
    <path id="Trazado_422" data-name="Trazado 422" d="M191.3,180.733h-.293V177.5h.293a3.382,3.382,0,0,0,.068.538,3.03,3.03,0,0,0,.322.867,2.362,2.362,0,0,0,.831.867,2.7,2.7,0,0,0,1.5.376,1.929,1.929,0,0,0,1.315-.456,1.473,1.473,0,0,0,.524-1.162,1.286,1.286,0,0,0-.442-.919,5.381,5.381,0,0,0-1.251-.861l-1.412-.721a3.469,3.469,0,0,1-1.162-1,2.326,2.326,0,0,1-.47-1.427,2.027,2.027,0,0,1,.691-1.558,2.5,2.5,0,0,1,1.751-.632,2.781,2.781,0,0,1,.993.154,3.379,3.379,0,0,1,.8.448,1.2,1.2,0,0,0,.426-.676h.293v3.235h-.308a5,5,0,0,0-.17-.941,2.841,2.841,0,0,0-.374-.816,1.812,1.812,0,0,0-.669-.6,2.211,2.211,0,0,0-1.038-.221,1.445,1.445,0,0,0-1.021.376,1.28,1.28,0,0,0-.016,1.853,6.516,6.516,0,0,0,1.391.9l1.412.721a2.8,2.8,0,0,1,1.162.986,2.32,2.32,0,0,1,.368,1.25,2.6,2.6,0,0,1-.222,1.081,2.477,2.477,0,0,1-.6.839,2.784,2.784,0,0,1-.891.537,3.041,3.041,0,0,1-1.08.191,2.883,2.883,0,0,1-.9-.133,8.607,8.607,0,0,1-.861-.339,2.133,2.133,0,0,0-.53-.219A1.209,1.209,0,0,0,191.3,180.733Z" fill="#fff"/>
    <path id="Trazado_423" data-name="Trazado 423" d="M214.884,173.643h-.31l-.072-.295a1.651,1.651,0,0,0-.471-.889,2.234,2.234,0,0,0-1.236-.228h-1.927v6.221a5.968,5.968,0,0,0,.052.9,1.025,1.025,0,0,0,.2.507.75.75,0,0,0,.413.243,3.259,3.259,0,0,0,.75.067v.309h-3.987v-.309a3.269,3.269,0,0,0,.751-.067.734.734,0,0,0,.411-.243,1.026,1.026,0,0,0,.2-.507,6.44,6.44,0,0,0,.05-.9v-6.221H207.78a2.227,2.227,0,0,0-1.236.228,1.638,1.638,0,0,0-.471.889l-.074.295h-.309l.133-1.985h8.929Z" fill="#fff"/>
    <path id="Trazado_424" data-name="Trazado 424" d="M231.481,172.768a1.006,1.006,0,0,0-.191-.5.735.735,0,0,0-.411-.236,3.391,3.391,0,0,0-.758-.066v-.308h3.441v.308a3.266,3.266,0,0,0-.749.066.785.785,0,0,0-.413.236.988.988,0,0,0-.2.5,6.079,6.079,0,0,0-.052.9v3.53a3.378,3.378,0,0,1-1,2.6,3.914,3.914,0,0,1-5.075,0,3.382,3.382,0,0,1-1-2.6v-3.53a6.069,6.069,0,0,0-.052-.912,1,1,0,0,0-.191-.492.732.732,0,0,0-.4-.236,3.27,3.27,0,0,0-.75-.066v-.308h3.972v.308a3.3,3.3,0,0,0-.752.066.74.74,0,0,0-.4.236,1.037,1.037,0,0,0-.191.492,6.207,6.207,0,0,0-.052.912v3.6a2.833,2.833,0,0,0,.706,2.088,2.524,2.524,0,0,0,1.868.706,2.516,2.516,0,0,0,2.707-2.794v-3.6A6.077,6.077,0,0,0,231.481,172.768Z" fill="#fff"/>
    <path id="Trazado_425" data-name="Trazado 425" d="M242.77,180.174a3.275,3.275,0,0,0,.751-.067.711.711,0,0,0,.4-.243,1.091,1.091,0,0,0,.191-.5,6.387,6.387,0,0,0,.05-.912v-4.78a6.407,6.407,0,0,0-.05-.912,1.047,1.047,0,0,0-.191-.492.742.742,0,0,0-.4-.236,3.286,3.286,0,0,0-.751-.066v-.308h3.987a6.415,6.415,0,0,1,2.183.337,4.119,4.119,0,0,1,1.538.942,3.815,3.815,0,0,1,.9,1.4,5.228,5.228,0,0,1,0,3.457,3.811,3.811,0,0,1-.9,1.4,4.092,4.092,0,0,1-1.538.941,6.388,6.388,0,0,1-2.183.339H242.77Zm2.574-1.942a6.06,6.06,0,0,0,.052.912,1.076,1.076,0,0,0,.183.492.7.7,0,0,0,.391.236,3.172,3.172,0,0,0,.743.066h.059a3.805,3.805,0,0,0,1.72-.346,2.74,2.74,0,0,0,1.074-.9,3.544,3.544,0,0,0,.536-1.229,6.306,6.306,0,0,0,0-2.779,3.636,3.636,0,0,0-.536-1.236,2.676,2.676,0,0,0-1.074-.9,3.89,3.89,0,0,0-1.72-.339h-1.428Z" fill="#fff"/>
    <path id="Trazado_426" data-name="Trazado 426" d="M261.6,180.483v-.309a3.291,3.291,0,0,0,.752-.067.708.708,0,0,0,.4-.243,1.08,1.08,0,0,0,.191-.5,6.215,6.215,0,0,0,.051-.912v-4.78a6.233,6.233,0,0,0-.051-.912,1.037,1.037,0,0,0-.191-.492.74.74,0,0,0-.4-.236,3.3,3.3,0,0,0-.752-.066v-.308h3.972v.308a3.27,3.27,0,0,0-.75.066.732.732,0,0,0-.4.236,1,1,0,0,0-.191.492,6.069,6.069,0,0,0-.052.912v4.78a6.051,6.051,0,0,0,.052.912,1.038,1.038,0,0,0,.191.5.7.7,0,0,0,.4.243,3.259,3.259,0,0,0,.75.067v.309Z" fill="#fff"/>
    <path id="Trazado_427" data-name="Trazado 427" d="M284.94,177.865a4.737,4.737,0,0,1-1.058,1.5,4.882,4.882,0,0,1-1.574,1.008,5.05,5.05,0,0,1-1.9.361,5,5,0,0,1-1.882-.361,4.854,4.854,0,0,1-1.575-1.008,4.738,4.738,0,0,1-1.058-1.5,4.406,4.406,0,0,1,0-3.589,4.746,4.746,0,0,1,1.058-1.5,4.9,4.9,0,0,1,1.575-1.008,5,5,0,0,1,1.882-.359,5.048,5.048,0,0,1,1.9.359,4.933,4.933,0,0,1,1.574,1.008,4.746,4.746,0,0,1,1.058,1.5,4.406,4.406,0,0,1,0,3.589Zm-6.112-5.525a3.158,3.158,0,0,0-1.1.965,4.189,4.189,0,0,0-.625,1.323,5.384,5.384,0,0,0-.2,1.442,5.3,5.3,0,0,0,.2,1.434,4.221,4.221,0,0,0,.625,1.317,3.13,3.13,0,0,0,1.1.962,3.66,3.66,0,0,0,3.17,0,3.125,3.125,0,0,0,1.1-.962,4.221,4.221,0,0,0,.625-1.317,5.3,5.3,0,0,0,.2-1.434,5.384,5.384,0,0,0-.2-1.442,4.189,4.189,0,0,0-.625-1.323,3.153,3.153,0,0,0-1.1-.965,3.678,3.678,0,0,0-3.17,0Z" fill="#fff"/>
    <path id="Trazado_428" data-name="Trazado 428" d="M80.829,176.585a2.266,2.266,0,0,1-.323,3.2,3.526,3.526,0,0,1-2.325.7H73.812v-.309a3.275,3.275,0,0,0,.751-.067.708.708,0,0,0,.4-.243,1.08,1.08,0,0,0,.191-.5,6.385,6.385,0,0,0,.05-.912v-4.78a6.4,6.4,0,0,0-.05-.912,1.037,1.037,0,0,0-.191-.492.739.739,0,0,0-.4-.236,3.286,3.286,0,0,0-.751-.066v-.308h3.956a3.169,3.169,0,0,1,2.1.624,1.98,1.98,0,0,1,.743,1.581,1.851,1.851,0,0,1-.315,1.037,2.564,2.564,0,0,1-.832.788A2.775,2.775,0,0,1,80.829,176.585Zm-4.443-1.075H77.7a1.53,1.53,0,0,0,1.206-.463,1.714,1.714,0,0,0,.411-1.184,1.748,1.748,0,0,0-.411-1.191A1.521,1.521,0,0,0,77.7,172.2h-1.31Zm3.177,3.884a2,2,0,0,0,.486-1.383,2.043,2.043,0,0,0-.486-1.4,1.763,1.763,0,0,0-1.4-.552h-1.78v2.177a6.068,6.068,0,0,0,.052.9,1.011,1.011,0,0,0,.192.5.732.732,0,0,0,.4.236,3.269,3.269,0,0,0,.75.066h.382A1.772,1.772,0,0,0,79.563,179.394Z" fill="#fff"/>
    <path id="Trazado_429" data-name="Trazado 429" d="M90.947,180.174a3.291,3.291,0,0,0,.752-.067.708.708,0,0,0,.4-.243,1.08,1.08,0,0,0,.191-.5,6.24,6.24,0,0,0,.05-.912v-4.78a6.258,6.258,0,0,0-.05-.912,1.037,1.037,0,0,0-.191-.492.74.74,0,0,0-.4-.236,3.3,3.3,0,0,0-.752-.066v-.308h6.707l.133,1.94h-.309L97.4,173.3a1.638,1.638,0,0,0-.469-.876A2.231,2.231,0,0,0,95.7,172.2H93.522v3.339h.736a5.924,5.924,0,0,0,.911-.052,1,1,0,0,0,.493-.191.74.74,0,0,0,.235-.411,3.31,3.31,0,0,0,.067-.758h.308V177.5h-.308a3.307,3.307,0,0,0-.067-.757.75.75,0,0,0-.235-.412,1.037,1.037,0,0,0-.493-.191,6.192,6.192,0,0,0-.911-.052h-.736v2.148a6.069,6.069,0,0,0,.052.9,1,1,0,0,0,.191.5.732.732,0,0,0,.4.236,3.269,3.269,0,0,0,.75.066h1.264a2.207,2.207,0,0,0,1.245-.235,1.605,1.605,0,0,0,.463-.882l.074-.295h.308l-.117,1.957H90.947Z" fill="#fff"/>
    <path id="Trazado_430" data-name="Trazado 430" d="M109.04,179.056a1.341,1.341,0,0,0-.147.53.465.465,0,0,0,.308.447,2.541,2.541,0,0,0,.986.141v.309h-3.441v-.309a3.954,3.954,0,0,0,.719-.052,1.031,1.031,0,0,0,.428-.176,1.082,1.082,0,0,0,.279-.339c.078-.142.177-.35.3-.625l.043-.087,3.237-7.487h.191l3.251,7.487.043.087c.118.275.217.483.295.625a1.082,1.082,0,0,0,.279.339,1.019,1.019,0,0,0,.419.176,3.843,3.843,0,0,0,.713.052v.309h-4.074v-.309a2.537,2.537,0,0,0,.986-.141.462.462,0,0,0,.309-.447,1.346,1.346,0,0,0-.148-.53l-.706-1.632h-3.559Zm2.471-5.723-1.53,3.546h3.074Z" fill="#fff"/>
    <path id="Trazado_431" data-name="Trazado 431" d="M132.242,172.768a1.015,1.015,0,0,0-.191-.5.739.739,0,0,0-.411-.236,3.4,3.4,0,0,0-.758-.066v-.308h3.441v.308a3.276,3.276,0,0,0-.75.066.782.782,0,0,0-.412.236.979.979,0,0,0-.2.5,6.077,6.077,0,0,0-.052.9v3.53a3.375,3.375,0,0,1-1,2.6,3.914,3.914,0,0,1-5.075,0,3.385,3.385,0,0,1-1-2.6v-3.53a6.07,6.07,0,0,0-.052-.912,1.007,1.007,0,0,0-.191-.492.735.735,0,0,0-.4-.236,3.266,3.266,0,0,0-.749-.066v-.308h3.971v.308a3.3,3.3,0,0,0-.751.066.74.74,0,0,0-.4.236,1.037,1.037,0,0,0-.192.492,6.35,6.35,0,0,0-.052.912v3.6a2.833,2.833,0,0,0,.707,2.088,2.524,2.524,0,0,0,1.868.706,2.516,2.516,0,0,0,2.707-2.794v-3.6A6.079,6.079,0,0,0,132.242,172.768Z" fill="#fff"/>
    <path id="Trazado_432" data-name="Trazado 432" d="M152.284,173.643h-.311l-.072-.295a1.651,1.651,0,0,0-.471-.889,2.231,2.231,0,0,0-1.236-.228h-1.927v6.221a6.1,6.1,0,0,0,.052.9,1.016,1.016,0,0,0,.2.507.748.748,0,0,0,.412.243,3.259,3.259,0,0,0,.75.067v.309h-3.987v-.309a3.278,3.278,0,0,0,.752-.067.741.741,0,0,0,.411-.243,1.026,1.026,0,0,0,.2-.507,6.267,6.267,0,0,0,.051-.9v-6.221h-1.926a2.227,2.227,0,0,0-1.236.228,1.638,1.638,0,0,0-.471.889l-.074.295h-.309l.133-1.985h8.929Z" fill="#fff"/>
    <path id="Trazado_433" data-name="Trazado 433" d="M166.051,178.452a6.051,6.051,0,0,0,.052.912,1.048,1.048,0,0,0,.191.5.7.7,0,0,0,.4.243,3.249,3.249,0,0,0,.749.067v.309h-3.971v-.309a3.255,3.255,0,0,0,.749-.067.707.707,0,0,0,.406-.243,1.069,1.069,0,0,0,.191-.5,6.215,6.215,0,0,0,.051-.912v-1.426l-2.442-3.78a3.315,3.315,0,0,0-.926-1.008,2.294,2.294,0,0,0-1.206-.272v-.308h4.191v.308a2.016,2.016,0,0,0-.808.118.375.375,0,0,0-.25.352,1.323,1.323,0,0,0,.265.647l2.118,3.237,2.147-3.237a1.479,1.479,0,0,0,.294-.691c0-.283-.363-.426-1.089-.426v-.308h3.443v.308a2.247,2.247,0,0,0-1.242.265,3.775,3.775,0,0,0-.891,1.015l-2.427,3.676Z" fill="#fff"/>
    <path id="Trazado_434" data-name="Trazado 434" d="M191.3,180.733h-.293V177.5h.293a3.382,3.382,0,0,0,.068.538,3.03,3.03,0,0,0,.322.867,2.362,2.362,0,0,0,.831.867,2.7,2.7,0,0,0,1.5.376,1.929,1.929,0,0,0,1.315-.456,1.473,1.473,0,0,0,.524-1.162,1.286,1.286,0,0,0-.442-.919,5.381,5.381,0,0,0-1.251-.861l-1.412-.721a3.469,3.469,0,0,1-1.162-1,2.326,2.326,0,0,1-.47-1.427,2.027,2.027,0,0,1,.691-1.558,2.5,2.5,0,0,1,1.751-.632,2.781,2.781,0,0,1,.993.154,3.379,3.379,0,0,1,.8.448,1.2,1.2,0,0,0,.426-.676h.293v3.235h-.308a5,5,0,0,0-.17-.941,2.841,2.841,0,0,0-.374-.816,1.812,1.812,0,0,0-.669-.6,2.211,2.211,0,0,0-1.038-.221,1.445,1.445,0,0,0-1.021.376,1.28,1.28,0,0,0-.016,1.853,6.516,6.516,0,0,0,1.391.9l1.412.721a2.8,2.8,0,0,1,1.162.986,2.32,2.32,0,0,1,.368,1.25,2.6,2.6,0,0,1-.222,1.081,2.477,2.477,0,0,1-.6.839,2.784,2.784,0,0,1-.891.537,3.041,3.041,0,0,1-1.08.191,2.883,2.883,0,0,1-.9-.133,8.607,8.607,0,0,1-.861-.339,2.133,2.133,0,0,0-.53-.219A1.209,1.209,0,0,0,191.3,180.733Z" fill="#fff"/>
    <path id="Trazado_435" data-name="Trazado 435" d="M214.884,173.643h-.31l-.072-.295a1.651,1.651,0,0,0-.471-.889,2.234,2.234,0,0,0-1.236-.228h-1.927v6.221a5.968,5.968,0,0,0,.052.9,1.025,1.025,0,0,0,.2.507.75.75,0,0,0,.413.243,3.259,3.259,0,0,0,.75.067v.309h-3.987v-.309a3.269,3.269,0,0,0,.751-.067.734.734,0,0,0,.411-.243,1.026,1.026,0,0,0,.2-.507,6.44,6.44,0,0,0,.05-.9v-6.221H207.78a2.227,2.227,0,0,0-1.236.228,1.638,1.638,0,0,0-.471.889l-.074.295h-.309l.133-1.985h8.929Z" fill="#fff"/>
    <path id="Trazado_436" data-name="Trazado 436" d="M231.481,172.768a1.006,1.006,0,0,0-.191-.5.735.735,0,0,0-.411-.236,3.391,3.391,0,0,0-.758-.066v-.308h3.441v.308a3.266,3.266,0,0,0-.749.066.785.785,0,0,0-.413.236.988.988,0,0,0-.2.5,6.079,6.079,0,0,0-.052.9v3.53a3.378,3.378,0,0,1-1,2.6,3.914,3.914,0,0,1-5.075,0,3.382,3.382,0,0,1-1-2.6v-3.53a6.069,6.069,0,0,0-.052-.912,1,1,0,0,0-.191-.492.732.732,0,0,0-.4-.236,3.27,3.27,0,0,0-.75-.066v-.308h3.972v.308a3.3,3.3,0,0,0-.752.066.74.74,0,0,0-.4.236,1.037,1.037,0,0,0-.191.492,6.207,6.207,0,0,0-.052.912v3.6a2.833,2.833,0,0,0,.706,2.088,2.524,2.524,0,0,0,1.868.706,2.516,2.516,0,0,0,2.707-2.794v-3.6A6.077,6.077,0,0,0,231.481,172.768Z" fill="#fff"/>
    <path id="Trazado_437" data-name="Trazado 437" d="M242.77,180.174a3.275,3.275,0,0,0,.751-.067.711.711,0,0,0,.4-.243,1.091,1.091,0,0,0,.191-.5,6.387,6.387,0,0,0,.05-.912v-4.78a6.407,6.407,0,0,0-.05-.912,1.047,1.047,0,0,0-.191-.492.742.742,0,0,0-.4-.236,3.286,3.286,0,0,0-.751-.066v-.308h3.987a6.415,6.415,0,0,1,2.183.337,4.119,4.119,0,0,1,1.538.942,3.815,3.815,0,0,1,.9,1.4,5.228,5.228,0,0,1,0,3.457,3.811,3.811,0,0,1-.9,1.4,4.092,4.092,0,0,1-1.538.941,6.388,6.388,0,0,1-2.183.339H242.77Zm2.574-1.942a6.06,6.06,0,0,0,.052.912,1.076,1.076,0,0,0,.183.492.7.7,0,0,0,.391.236,3.172,3.172,0,0,0,.743.066h.059a3.805,3.805,0,0,0,1.72-.346,2.74,2.74,0,0,0,1.074-.9,3.544,3.544,0,0,0,.536-1.229,6.306,6.306,0,0,0,0-2.779,3.636,3.636,0,0,0-.536-1.236,2.676,2.676,0,0,0-1.074-.9,3.89,3.89,0,0,0-1.72-.339h-1.428Z" fill="#fff"/>
    <path id="Trazado_438" data-name="Trazado 438" d="M261.6,180.483v-.309a3.291,3.291,0,0,0,.752-.067.708.708,0,0,0,.4-.243,1.08,1.08,0,0,0,.191-.5,6.215,6.215,0,0,0,.051-.912v-4.78a6.233,6.233,0,0,0-.051-.912,1.037,1.037,0,0,0-.191-.492.74.74,0,0,0-.4-.236,3.3,3.3,0,0,0-.752-.066v-.308h3.972v.308a3.27,3.27,0,0,0-.75.066.732.732,0,0,0-.4.236,1,1,0,0,0-.191.492,6.069,6.069,0,0,0-.052.912v4.78a6.051,6.051,0,0,0,.052.912,1.038,1.038,0,0,0,.191.5.7.7,0,0,0,.4.243,3.259,3.259,0,0,0,.75.067v.309Z" fill="#fff"/>
    <path id="Trazado_439" data-name="Trazado 439" d="M284.94,177.865a4.737,4.737,0,0,1-1.058,1.5,4.882,4.882,0,0,1-1.574,1.008,5.05,5.05,0,0,1-1.9.361,5,5,0,0,1-1.882-.361,4.854,4.854,0,0,1-1.575-1.008,4.738,4.738,0,0,1-1.058-1.5,4.406,4.406,0,0,1,0-3.589,4.746,4.746,0,0,1,1.058-1.5,4.9,4.9,0,0,1,1.575-1.008,5,5,0,0,1,1.882-.359,5.048,5.048,0,0,1,1.9.359,4.933,4.933,0,0,1,1.574,1.008,4.746,4.746,0,0,1,1.058,1.5,4.406,4.406,0,0,1,0,3.589Zm-6.112-5.525a3.158,3.158,0,0,0-1.1.965,4.189,4.189,0,0,0-.625,1.323,5.384,5.384,0,0,0-.2,1.442,5.3,5.3,0,0,0,.2,1.434,4.221,4.221,0,0,0,.625,1.317,3.13,3.13,0,0,0,1.1.962,3.66,3.66,0,0,0,3.17,0,3.125,3.125,0,0,0,1.1-.962,4.221,4.221,0,0,0,.625-1.317,5.3,5.3,0,0,0,.2-1.434,5.384,5.384,0,0,0-.2-1.442,4.189,4.189,0,0,0-.625-1.323,3.153,3.153,0,0,0-1.1-.965,3.678,3.678,0,0,0-3.17,0Z" fill="#fff"/>
  </g>
</svg>
