<svg xmlns="http://www.w3.org/2000/svg" width="193.551" height="61.231" viewBox="0 0 193.551 61.231">
  <g id="Grupo_450" data-name="Grupo 450" transform="translate(-223.136 -3395.12)">
    <g id="Grupo_449" data-name="Grupo 449">
      <path id="Trazado_440" data-name="Trazado 440" d="M246.91,3416.79l6.571,8.031q4.556,5.142,6.834,7.273a27.154,27.154,0,0,0,5.053,3.68,16.49,16.49,0,0,1-5.7.759,13.966,13.966,0,0,1-5.577-1.226,10.925,10.925,0,0,1-3.564-2.483q-2.8-2.979-3.3-3.622l-5.578-7.3-.175-.234q-2.1-2.511-2.454-2.862a3.5,3.5,0,0,0-2.6-.818h-.176l-1.6.117v11.1q.29,3.972,1.343,5.112a7,7,0,0,0,3.533,1.9H223.136a8.161,8.161,0,0,0,1.84-1.2,6.068,6.068,0,0,0,1.811-2.542,7.584,7.584,0,0,0,.263-2.278v-.613l.087-26.665a7.6,7.6,0,0,0-.9-4.322,6.868,6.868,0,0,0-2.57-2.132l6.4.058c.233,0,.536-.01.906-.029h.876l8.5-.234c.059,0,.2-.009.409-.029q.41-.029,1.168-.029,6.017,0,9.376,1.869a9.583,9.583,0,0,1,3.5,3.446,9.921,9.921,0,0,1-.789,11.3Q251.816,3415.593,246.91,3416.79Zm-12.325-18.429.087,17.787,3.1.117q.379.029.789.028,4.731,0,7.243-1.927,2.919-2.279,2.921-6.951a9.434,9.434,0,0,0-2.366-6.6,6.756,6.756,0,0,0-3.33-1.927,18.116,18.116,0,0,0-4.877-.643h-.233Z" fill="#2b3147"/>
      <path id="Trazado_441" data-name="Trazado 441" d="M274.782,3430.283l.117-27.074v-1.285a7.7,7.7,0,0,0-.409-2.949,6.592,6.592,0,0,0-2.482-2.629h13.61a8.444,8.444,0,0,0-2.658,2.454,7.018,7.018,0,0,0-.5,2.248q-.176,1.987-.175,2.22v26.168l-.03.759a6.339,6.339,0,0,0,1.752,4.907,8.6,8.6,0,0,0,1.753,1.11H271.892a6.665,6.665,0,0,0,2.248-2.307A7.867,7.867,0,0,0,274.782,3430.283Z" fill="#2b3147"/>
      <path id="Trazado_442" data-name="Trazado 442" d="M294.886,3432.649l-.262-8.178.818-.175a21.667,21.667,0,0,0,2.073,4.147,16.316,16.316,0,0,0,5.987,5.491,12.4,12.4,0,0,0,5.87,1.431,8.607,8.607,0,0,0,6.455-2.453,7.148,7.148,0,0,0,2.161-5.14q0-4.089-4.41-6.835a42.325,42.325,0,0,0-5.344-2.394q-7.74-3.037-10.982-6.631a8.568,8.568,0,0,1-2.074-5.958,9.615,9.615,0,0,1,5.17-8.907,15.952,15.952,0,0,1,7.973-1.927,21.39,21.39,0,0,1,8.85,1.927,5.1,5.1,0,0,0,1.9.526,2.048,2.048,0,0,0,1.84-1.023l.613.059.642,9.287-.934.088a13.887,13.887,0,0,0-1.986-3.8,12.823,12.823,0,0,0-4.556-3.651,12.446,12.446,0,0,0-5.666-1.4,6.411,6.411,0,0,0-5.374,2.542,6.51,6.51,0,0,0-1.372,4.03,5.514,5.514,0,0,0,1.956,4.468,15.407,15.407,0,0,0,4.79,2.6l2.366.876a36.279,36.279,0,0,1,9.755,4.935,9.632,9.632,0,0,1,2.687,3.476,10.158,10.158,0,0,1,1.021,4.5,11.991,11.991,0,0,1-2.453,7.213q-4.089,5.58-13.23,5.579a21.436,21.436,0,0,1-8.586-1.607A24.855,24.855,0,0,1,294.886,3432.649Z" fill="#2b3147"/>
      <path id="Trazado_443" data-name="Trazado 443" d="M333.77,3432.649l-.263-8.178.818-.175a21.724,21.724,0,0,0,2.073,4.147,16.319,16.319,0,0,0,5.988,5.491,12.4,12.4,0,0,0,5.87,1.431,8.61,8.61,0,0,0,6.455-2.453,7.148,7.148,0,0,0,2.161-5.14q0-4.089-4.411-6.835a42.182,42.182,0,0,0-5.344-2.394q-7.738-3.037-10.981-6.631a8.568,8.568,0,0,1-2.074-5.958,9.613,9.613,0,0,1,5.17-8.907,15.951,15.951,0,0,1,7.972-1.927,21.387,21.387,0,0,1,8.85,1.927,5.1,5.1,0,0,0,1.9.526,2.051,2.051,0,0,0,1.841-1.023l.612.059.643,9.287-.935.088a13.888,13.888,0,0,0-1.986-3.8,12.823,12.823,0,0,0-4.556-3.651,12.44,12.44,0,0,0-5.666-1.4,6.412,6.412,0,0,0-5.374,2.542,6.51,6.51,0,0,0-1.372,4.03,5.511,5.511,0,0,0,1.957,4.468,15.4,15.4,0,0,0,4.789,2.6l2.366.876a36.248,36.248,0,0,1,9.755,4.935,9.621,9.621,0,0,1,2.687,3.476,10.146,10.146,0,0,1,1.022,4.5,12,12,0,0,1-2.453,7.213q-4.089,5.58-13.23,5.579a21.437,21.437,0,0,1-8.587-1.607A24.843,24.843,0,0,1,333.77,3432.649Z" fill="#2b3147"/>
      <path id="Trazado_444" data-name="Trazado 444" d="M395.434,3395.47q10.221,0,16.413,7.3a19.756,19.756,0,0,1,4.732,13.2,20.508,20.508,0,0,1-3.066,11.1,20,20,0,0,1-8.266,7.5,24.759,24.759,0,0,1-11.127,2.57,24.172,24.172,0,0,1-9.784-2.015,19.612,19.612,0,0,1-9.229-7.915,20.342,20.342,0,0,1-2.979-10.923,19.178,19.178,0,0,1,6.892-15.128,22.973,22.973,0,0,1,8.5-4.527A27.126,27.126,0,0,1,395.434,3395.47Zm-1.168,2.1a10.241,10.241,0,0,0-6.951,2.57q-6.164,5.375-6.162,16.209a27.607,27.607,0,0,0,1.752,9.988,14.292,14.292,0,0,0,4.994,6.572,11.313,11.313,0,0,0,6.864,2.278,11.427,11.427,0,0,0,5.986-1.724,14.6,14.6,0,0,0,5.813-7.213,25.826,25.826,0,0,0,1.839-10.018,23.911,23.911,0,0,0-2.6-11.157,14.156,14.156,0,0,0-5.549-5.958A11.775,11.775,0,0,0,394.266,3397.573Z" fill="#2b3147"/>
      <g id="Grupo_402" data-name="Grupo 402">
        <g id="Grupo_401" data-name="Grupo 401">
          <path id="Trazado_445" data-name="Trazado 445" d="M229.558,3452.555a2.075,2.075,0,0,1-.3,2.927,3.229,3.229,0,0,1-2.128.64h-4v-.282a3.014,3.014,0,0,0,.688-.062.651.651,0,0,0,.37-.222,1,1,0,0,0,.175-.458,5.714,5.714,0,0,0,.046-.835v-4.374a5.722,5.722,0,0,0-.046-.834.946.946,0,0,0-.175-.45.68.68,0,0,0-.37-.217,3.119,3.119,0,0,0-.688-.059v-.283h3.621a2.9,2.9,0,0,1,1.918.571,1.813,1.813,0,0,1,.68,1.447,1.7,1.7,0,0,1-.288.949,2.341,2.341,0,0,1-.762.721A2.534,2.534,0,0,1,229.558,3452.555Zm-4.066-.984h1.2a1.4,1.4,0,0,0,1.1-.423,1.575,1.575,0,0,0,.376-1.084,1.6,1.6,0,0,0-.376-1.089,1.389,1.389,0,0,0-1.1-.432h-1.2Zm2.907,3.555a1.832,1.832,0,0,0,.445-1.266,1.873,1.873,0,0,0-.445-1.285,1.612,1.612,0,0,0-1.278-.5h-1.629v1.992a5.557,5.557,0,0,0,.048.828.925.925,0,0,0,.175.457.668.668,0,0,0,.37.216,3,3,0,0,0,.686.06h.35A1.624,1.624,0,0,0,228.4,3455.126Z" fill="#2b3147"/>
        </g>
      </g>
      <g id="Grupo_404" data-name="Grupo 404">
        <g id="Grupo_403" data-name="Grupo 403">
          <path id="Trazado_446" data-name="Trazado 446" d="M238.817,3455.84a3,3,0,0,0,.687-.062.651.651,0,0,0,.37-.222.987.987,0,0,0,.175-.458,5.712,5.712,0,0,0,.046-.835v-4.374a5.72,5.72,0,0,0-.046-.834.936.936,0,0,0-.175-.45.68.68,0,0,0-.37-.217,3.109,3.109,0,0,0-.687-.059v-.283h6.137l.121,1.776h-.282l-.068-.269a1.5,1.5,0,0,0-.429-.8,2.043,2.043,0,0,0-1.131-.209h-1.992v3.056h.673a5.564,5.564,0,0,0,.834-.047.927.927,0,0,0,.451-.175.677.677,0,0,0,.215-.376,3.051,3.051,0,0,0,.061-.694h.283v3.082h-.283a3.035,3.035,0,0,0-.061-.693.683.683,0,0,0-.215-.377.934.934,0,0,0-.451-.175,5.673,5.673,0,0,0-.834-.048h-.673v1.966a5.581,5.581,0,0,0,.047.828.925.925,0,0,0,.175.457.675.675,0,0,0,.37.216,3.008,3.008,0,0,0,.686.06h1.157a2.014,2.014,0,0,0,1.139-.215,1.464,1.464,0,0,0,.424-.807l.067-.27h.282l-.107,1.791h-6.6Z" fill="#2b3147"/>
        </g>
      </g>
      <g id="Grupo_406" data-name="Grupo 406">
        <g id="Grupo_405" data-name="Grupo 405">
          <path id="Trazado_447" data-name="Trazado 447" d="M255.373,3454.816a1.243,1.243,0,0,0-.135.485.428.428,0,0,0,.283.41,2.317,2.317,0,0,0,.9.129v.282h-3.149v-.282a3.623,3.623,0,0,0,.658-.048.947.947,0,0,0,.392-.161.981.981,0,0,0,.254-.31c.073-.131.163-.321.271-.573l.039-.079,2.963-6.851h.174l2.975,6.851.04.079c.107.252.2.442.27.573a.97.97,0,0,0,.255.31.934.934,0,0,0,.383.161,3.527,3.527,0,0,0,.652.048v.282h-3.727v-.282a2.321,2.321,0,0,0,.9-.129.424.424,0,0,0,.282-.41,1.226,1.226,0,0,0-.135-.485l-.646-1.493H256.02Zm2.261-5.237-1.4,3.245h2.814Z" fill="#2b3147"/>
        </g>
      </g>
      <g id="Grupo_408" data-name="Grupo 408">
        <g id="Grupo_407" data-name="Grupo 407">
          <path id="Trazado_448" data-name="Trazado 448" d="M276.605,3449.062a.926.926,0,0,0-.175-.457.672.672,0,0,0-.376-.217,3.212,3.212,0,0,0-.694-.059v-.283h3.15v.283a3.1,3.1,0,0,0-.687.059.716.716,0,0,0-.377.217.9.9,0,0,0-.181.457,5.542,5.542,0,0,0-.048.827v3.231a3.092,3.092,0,0,1-.914,2.376,3.582,3.582,0,0,1-4.645,0,3.1,3.1,0,0,1-.914-2.376v-3.231a5.534,5.534,0,0,0-.048-.834.908.908,0,0,0-.175-.45.669.669,0,0,0-.37-.217,3.086,3.086,0,0,0-.686-.059v-.283H273.1v.283a3.119,3.119,0,0,0-.688.059.68.68,0,0,0-.37.217.946.946,0,0,0-.175.45,5.84,5.84,0,0,0-.047.834v3.3a2.591,2.591,0,0,0,.646,1.91,2.3,2.3,0,0,0,1.709.646,2.3,2.3,0,0,0,2.477-2.556v-3.3A5.57,5.57,0,0,0,276.605,3449.062Z" fill="#2b3147"/>
        </g>
      </g>
      <g id="Grupo_410" data-name="Grupo 410">
        <g id="Grupo_409" data-name="Grupo 409">
          <path id="Trazado_449" data-name="Trazado 449" d="M294.945,3449.863h-.284l-.066-.27a1.513,1.513,0,0,0-.431-.813,2.032,2.032,0,0,0-1.131-.209h-1.764v5.692a5.589,5.589,0,0,0,.048.829.949.949,0,0,0,.181.464.685.685,0,0,0,.377.222,3,3,0,0,0,.687.062v.282h-3.649v-.282a3,3,0,0,0,.688-.062.678.678,0,0,0,.376-.222.949.949,0,0,0,.183-.464,5.928,5.928,0,0,0,.046-.829v-5.692h-1.762a2.026,2.026,0,0,0-1.131.209,1.5,1.5,0,0,0-.432.813l-.067.27h-.282l.121-1.817h8.171Z" fill="#2b3147"/>
        </g>
      </g>
      <g id="Grupo_412" data-name="Grupo 412">
        <g id="Grupo_411" data-name="Grupo 411">
          <path id="Trazado_450" data-name="Trazado 450" d="M307.544,3454.263a5.547,5.547,0,0,0,.047.835.966.966,0,0,0,.175.458.645.645,0,0,0,.37.222,2.988,2.988,0,0,0,.686.062v.282h-3.634v-.282a2.988,2.988,0,0,0,.686-.062.651.651,0,0,0,.371-.222.987.987,0,0,0,.175-.458,5.717,5.717,0,0,0,.046-.835v-1.3l-2.234-3.459a3.043,3.043,0,0,0-.848-.923,2.094,2.094,0,0,0-1.1-.248v-.283h3.835v.283a1.85,1.85,0,0,0-.739.107.343.343,0,0,0-.229.322,1.219,1.219,0,0,0,.242.593l1.939,2.962,1.964-2.962a1.35,1.35,0,0,0,.269-.633q0-.389-1-.389v-.283h3.15v.283a2.052,2.052,0,0,0-1.137.242,3.45,3.45,0,0,0-.815.929l-2.22,3.364Z" fill="#2b3147"/>
        </g>
      </g>
      <g id="Grupo_414" data-name="Grupo 414">
        <g id="Grupo_413" data-name="Grupo 413">
          <path id="Trazado_451" data-name="Trazado 451" d="M330.654,3456.351h-.269v-2.962h.269a3.08,3.08,0,0,0,.061.492,2.817,2.817,0,0,0,.3.794,2.173,2.173,0,0,0,.761.793,2.468,2.468,0,0,0,1.373.344,1.764,1.764,0,0,0,1.2-.418,1.345,1.345,0,0,0,.478-1.063,1.179,1.179,0,0,0-.4-.841,4.923,4.923,0,0,0-1.145-.787l-1.292-.66a3.182,3.182,0,0,1-1.064-.915,2.131,2.131,0,0,1-.43-1.306,1.855,1.855,0,0,1,.633-1.426,2.277,2.277,0,0,1,1.6-.578,2.544,2.544,0,0,1,.908.141,3.066,3.066,0,0,1,.734.409,1.1,1.1,0,0,0,.39-.618h.268v2.96h-.282a4.515,4.515,0,0,0-.155-.861,2.6,2.6,0,0,0-.342-.747,1.659,1.659,0,0,0-.613-.545,2.019,2.019,0,0,0-.949-.2,1.324,1.324,0,0,0-.935.343,1.172,1.172,0,0,0-.014,1.7,6.01,6.01,0,0,0,1.272.828l1.293.659a2.563,2.563,0,0,1,1.063.9,2.124,2.124,0,0,1,.336,1.143,2.391,2.391,0,0,1-.2.99,2.277,2.277,0,0,1-.551.768,2.56,2.56,0,0,1-.815.491,2.8,2.8,0,0,1-.989.175,2.618,2.618,0,0,1-.828-.122,7.84,7.84,0,0,1-.788-.31,2,2,0,0,0-.485-.2A1.1,1.1,0,0,0,330.654,3456.351Z" fill="#2b3147"/>
        </g>
      </g>
      <g id="Grupo_416" data-name="Grupo 416">
        <g id="Grupo_415" data-name="Grupo 415">
          <path id="Trazado_452" data-name="Trazado 452" d="M352.23,3449.863h-.284l-.066-.27a1.506,1.506,0,0,0-.431-.813,2.03,2.03,0,0,0-1.131-.209h-1.763v5.692a5.612,5.612,0,0,0,.047.829.949.949,0,0,0,.181.464.691.691,0,0,0,.378.222,2.988,2.988,0,0,0,.686.062v.282H346.2v-.282a3,3,0,0,0,.687-.062.675.675,0,0,0,.376-.222.939.939,0,0,0,.183-.464,5.776,5.776,0,0,0,.046-.829v-5.692h-1.762a2.03,2.03,0,0,0-1.131.209,1.5,1.5,0,0,0-.431.813l-.068.27h-.282l.121-1.817h8.171Z" fill="#2b3147"/>
        </g>
      </g>
      <g id="Grupo_418" data-name="Grupo 418">
        <g id="Grupo_417" data-name="Grupo 417">
          <path id="Trazado_453" data-name="Trazado 453" d="M367.418,3449.062a.926.926,0,0,0-.175-.457.673.673,0,0,0-.376-.217,3.205,3.205,0,0,0-.694-.059v-.283h3.15v.283a3.086,3.086,0,0,0-.686.059.719.719,0,0,0-.378.217.9.9,0,0,0-.181.457,5.542,5.542,0,0,0-.048.827v3.231a3.092,3.092,0,0,1-.914,2.376,3.581,3.581,0,0,1-4.644,0,3.093,3.093,0,0,1-.915-2.376v-3.231a5.4,5.4,0,0,0-.048-.834.907.907,0,0,0-.175-.45.669.669,0,0,0-.37-.217,3.086,3.086,0,0,0-.686-.059v-.283h3.635v.283a3.119,3.119,0,0,0-.688.059.68.68,0,0,0-.37.217.957.957,0,0,0-.175.45,5.84,5.84,0,0,0-.047.834v3.3a2.591,2.591,0,0,0,.646,1.91,2.305,2.305,0,0,0,1.71.646,2.3,2.3,0,0,0,2.477-2.556v-3.3A5.542,5.542,0,0,0,367.418,3449.062Z" fill="#2b3147"/>
        </g>
      </g>
      <g id="Grupo_420" data-name="Grupo 420">
        <g id="Grupo_419" data-name="Grupo 419">
          <path id="Trazado_454" data-name="Trazado 454" d="M377.748,3455.84a3.02,3.02,0,0,0,.688-.062.651.651,0,0,0,.37-.222,1.009,1.009,0,0,0,.175-.458,5.858,5.858,0,0,0,.046-.835v-4.374a5.867,5.867,0,0,0-.046-.834.957.957,0,0,0-.175-.45.68.68,0,0,0-.37-.217,3.125,3.125,0,0,0-.688-.059v-.283H381.4a5.874,5.874,0,0,1,2,.309,3.779,3.779,0,0,1,1.407.862,3.507,3.507,0,0,1,.821,1.285,4.784,4.784,0,0,1,0,3.163,3.511,3.511,0,0,1-.821,1.286,3.762,3.762,0,0,1-1.407.861,5.849,5.849,0,0,1-2,.31h-3.648Zm2.356-1.778a5.421,5.421,0,0,0,.048.835.968.968,0,0,0,.167.45.634.634,0,0,0,.358.216,2.91,2.91,0,0,0,.679.06h.054a3.489,3.489,0,0,0,1.575-.316,2.521,2.521,0,0,0,.982-.827,3.27,3.27,0,0,0,.491-1.125,5.8,5.8,0,0,0,0-2.543,3.35,3.35,0,0,0-.491-1.131,2.444,2.444,0,0,0-.982-.828,3.561,3.561,0,0,0-1.575-.31H380.1Z" fill="#2b3147"/>
        </g>
      </g>
      <g id="Grupo_422" data-name="Grupo 422">
        <g id="Grupo_421" data-name="Grupo 421">
          <path id="Trazado_455" data-name="Trazado 455" d="M394.977,3456.122v-.282a3.02,3.02,0,0,0,.688-.062.651.651,0,0,0,.37-.222,1.009,1.009,0,0,0,.175-.458,5.858,5.858,0,0,0,.046-.835v-4.374a5.867,5.867,0,0,0-.046-.834.957.957,0,0,0-.175-.45.68.68,0,0,0-.37-.217,3.125,3.125,0,0,0-.688-.059v-.283h3.634v.283a3.1,3.1,0,0,0-.686.059.676.676,0,0,0-.37.217.917.917,0,0,0-.174.45,5.4,5.4,0,0,0-.048.834v4.374a5.391,5.391,0,0,0,.048.835.966.966,0,0,0,.174.458.648.648,0,0,0,.37.222,2.994,2.994,0,0,0,.686.062v.282Z" fill="#2b3147"/>
        </g>
      </g>
      <g id="Grupo_424" data-name="Grupo 424">
        <g id="Grupo_423" data-name="Grupo 423">
          <path id="Trazado_456" data-name="Trazado 456" d="M416.338,3453.726a4.334,4.334,0,0,1-.969,1.372,4.47,4.47,0,0,1-1.439.923,4.64,4.64,0,0,1-1.738.33,4.592,4.592,0,0,1-1.722-.33,4.457,4.457,0,0,1-1.441-.923,4.315,4.315,0,0,1-.968-1.372,4.027,4.027,0,0,1,0-3.284,4.351,4.351,0,0,1,.968-1.374,4.5,4.5,0,0,1,1.441-.922,4.571,4.571,0,0,1,1.722-.328,4.619,4.619,0,0,1,1.738.328,4.517,4.517,0,0,1,1.439.922,4.37,4.37,0,0,1,.969,1.374,4.038,4.038,0,0,1,0,3.284Zm-5.593-5.055a2.887,2.887,0,0,0-1,.882,3.875,3.875,0,0,0-.573,1.211,4.965,4.965,0,0,0-.181,1.32,4.884,4.884,0,0,0,.181,1.312,3.876,3.876,0,0,0,.573,1.205,2.871,2.871,0,0,0,1,.881,3,3,0,0,0,1.447.33,3.036,3.036,0,0,0,1.454-.33,2.868,2.868,0,0,0,1.009-.881,3.855,3.855,0,0,0,.573-1.205,4.884,4.884,0,0,0,.181-1.312,4.965,4.965,0,0,0-.181-1.32,3.854,3.854,0,0,0-.573-1.211,2.883,2.883,0,0,0-1.009-.882,3.047,3.047,0,0,0-1.454-.329A3.01,3.01,0,0,0,410.745,3448.671Z" fill="#2b3147"/>
        </g>
      </g>
      <g id="Grupo_426" data-name="Grupo 426">
        <g id="Grupo_425" data-name="Grupo 425">
          <path id="Trazado_457" data-name="Trazado 457" d="M229.558,3452.555a2.075,2.075,0,0,1-.3,2.927,3.229,3.229,0,0,1-2.128.64h-4v-.282a3.014,3.014,0,0,0,.688-.062.651.651,0,0,0,.37-.222,1,1,0,0,0,.175-.458,5.714,5.714,0,0,0,.046-.835v-4.374a5.722,5.722,0,0,0-.046-.834.946.946,0,0,0-.175-.45.68.68,0,0,0-.37-.217,3.119,3.119,0,0,0-.688-.059v-.283h3.621a2.9,2.9,0,0,1,1.918.571,1.813,1.813,0,0,1,.68,1.447,1.7,1.7,0,0,1-.288.949,2.341,2.341,0,0,1-.762.721A2.534,2.534,0,0,1,229.558,3452.555Zm-4.066-.984h1.2a1.4,1.4,0,0,0,1.1-.423,1.575,1.575,0,0,0,.376-1.084,1.6,1.6,0,0,0-.376-1.089,1.389,1.389,0,0,0-1.1-.432h-1.2Zm2.907,3.555a1.832,1.832,0,0,0,.445-1.266,1.873,1.873,0,0,0-.445-1.285,1.612,1.612,0,0,0-1.278-.5h-1.629v1.992a5.557,5.557,0,0,0,.048.828.925.925,0,0,0,.175.457.668.668,0,0,0,.37.216,3,3,0,0,0,.686.06h.35A1.624,1.624,0,0,0,228.4,3455.126Z" fill="#2b3147"/>
        </g>
      </g>
      <g id="Grupo_428" data-name="Grupo 428">
        <g id="Grupo_427" data-name="Grupo 427">
          <path id="Trazado_458" data-name="Trazado 458" d="M238.817,3455.84a3,3,0,0,0,.687-.062.651.651,0,0,0,.37-.222.987.987,0,0,0,.175-.458,5.712,5.712,0,0,0,.046-.835v-4.374a5.72,5.72,0,0,0-.046-.834.936.936,0,0,0-.175-.45.68.68,0,0,0-.37-.217,3.109,3.109,0,0,0-.687-.059v-.283h6.137l.121,1.776h-.282l-.068-.269a1.5,1.5,0,0,0-.429-.8,2.043,2.043,0,0,0-1.131-.209h-1.992v3.056h.673a5.564,5.564,0,0,0,.834-.047.927.927,0,0,0,.451-.175.677.677,0,0,0,.215-.376,3.051,3.051,0,0,0,.061-.694h.283v3.082h-.283a3.035,3.035,0,0,0-.061-.693.683.683,0,0,0-.215-.377.934.934,0,0,0-.451-.175,5.673,5.673,0,0,0-.834-.048h-.673v1.966a5.581,5.581,0,0,0,.047.828.925.925,0,0,0,.175.457.675.675,0,0,0,.37.216,3.008,3.008,0,0,0,.686.06h1.157a2.014,2.014,0,0,0,1.139-.215,1.464,1.464,0,0,0,.424-.807l.067-.27h.282l-.107,1.791h-6.6Z" fill="#2b3147"/>
        </g>
      </g>
      <g id="Grupo_430" data-name="Grupo 430">
        <g id="Grupo_429" data-name="Grupo 429">
          <path id="Trazado_459" data-name="Trazado 459" d="M255.373,3454.816a1.243,1.243,0,0,0-.135.485.428.428,0,0,0,.283.41,2.317,2.317,0,0,0,.9.129v.282h-3.149v-.282a3.623,3.623,0,0,0,.658-.048.947.947,0,0,0,.392-.161.981.981,0,0,0,.254-.31c.073-.131.163-.321.271-.573l.039-.079,2.963-6.851h.174l2.975,6.851.04.079c.107.252.2.442.27.573a.97.97,0,0,0,.255.31.934.934,0,0,0,.383.161,3.527,3.527,0,0,0,.652.048v.282h-3.727v-.282a2.321,2.321,0,0,0,.9-.129.424.424,0,0,0,.282-.41,1.226,1.226,0,0,0-.135-.485l-.646-1.493H256.02Zm2.261-5.237-1.4,3.245h2.814Z" fill="#2b3147"/>
        </g>
      </g>
      <g id="Grupo_432" data-name="Grupo 432">
        <g id="Grupo_431" data-name="Grupo 431">
          <path id="Trazado_460" data-name="Trazado 460" d="M276.605,3449.062a.926.926,0,0,0-.175-.457.672.672,0,0,0-.376-.217,3.212,3.212,0,0,0-.694-.059v-.283h3.15v.283a3.1,3.1,0,0,0-.687.059.716.716,0,0,0-.377.217.9.9,0,0,0-.181.457,5.542,5.542,0,0,0-.048.827v3.231a3.092,3.092,0,0,1-.914,2.376,3.582,3.582,0,0,1-4.645,0,3.1,3.1,0,0,1-.914-2.376v-3.231a5.534,5.534,0,0,0-.048-.834.908.908,0,0,0-.175-.45.669.669,0,0,0-.37-.217,3.086,3.086,0,0,0-.686-.059v-.283H273.1v.283a3.119,3.119,0,0,0-.688.059.68.68,0,0,0-.37.217.946.946,0,0,0-.175.45,5.84,5.84,0,0,0-.047.834v3.3a2.591,2.591,0,0,0,.646,1.91,2.3,2.3,0,0,0,1.709.646,2.3,2.3,0,0,0,2.477-2.556v-3.3A5.57,5.57,0,0,0,276.605,3449.062Z" fill="#2b3147"/>
        </g>
      </g>
      <g id="Grupo_434" data-name="Grupo 434">
        <g id="Grupo_433" data-name="Grupo 433">
          <path id="Trazado_461" data-name="Trazado 461" d="M294.945,3449.863h-.284l-.066-.27a1.513,1.513,0,0,0-.431-.813,2.032,2.032,0,0,0-1.131-.209h-1.764v5.692a5.589,5.589,0,0,0,.048.829.949.949,0,0,0,.181.464.685.685,0,0,0,.377.222,3,3,0,0,0,.687.062v.282h-3.649v-.282a3,3,0,0,0,.688-.062.678.678,0,0,0,.376-.222.949.949,0,0,0,.183-.464,5.928,5.928,0,0,0,.046-.829v-5.692h-1.762a2.026,2.026,0,0,0-1.131.209,1.5,1.5,0,0,0-.432.813l-.067.27h-.282l.121-1.817h8.171Z" fill="#2b3147"/>
        </g>
      </g>
      <g id="Grupo_436" data-name="Grupo 436">
        <g id="Grupo_435" data-name="Grupo 435">
          <path id="Trazado_462" data-name="Trazado 462" d="M307.544,3454.263a5.547,5.547,0,0,0,.047.835.966.966,0,0,0,.175.458.645.645,0,0,0,.37.222,2.988,2.988,0,0,0,.686.062v.282h-3.634v-.282a2.988,2.988,0,0,0,.686-.062.651.651,0,0,0,.371-.222.987.987,0,0,0,.175-.458,5.717,5.717,0,0,0,.046-.835v-1.3l-2.234-3.459a3.043,3.043,0,0,0-.848-.923,2.094,2.094,0,0,0-1.1-.248v-.283h3.835v.283a1.85,1.85,0,0,0-.739.107.343.343,0,0,0-.229.322,1.219,1.219,0,0,0,.242.593l1.939,2.962,1.964-2.962a1.35,1.35,0,0,0,.269-.633q0-.389-1-.389v-.283h3.15v.283a2.052,2.052,0,0,0-1.137.242,3.45,3.45,0,0,0-.815.929l-2.22,3.364Z" fill="#2b3147"/>
        </g>
      </g>
      <g id="Grupo_438" data-name="Grupo 438">
        <g id="Grupo_437" data-name="Grupo 437">
          <path id="Trazado_463" data-name="Trazado 463" d="M330.654,3456.351h-.269v-2.962h.269a3.08,3.08,0,0,0,.061.492,2.817,2.817,0,0,0,.3.794,2.173,2.173,0,0,0,.761.793,2.468,2.468,0,0,0,1.373.344,1.764,1.764,0,0,0,1.2-.418,1.345,1.345,0,0,0,.478-1.063,1.179,1.179,0,0,0-.4-.841,4.923,4.923,0,0,0-1.145-.787l-1.292-.66a3.182,3.182,0,0,1-1.064-.915,2.131,2.131,0,0,1-.43-1.306,1.855,1.855,0,0,1,.633-1.426,2.277,2.277,0,0,1,1.6-.578,2.544,2.544,0,0,1,.908.141,3.066,3.066,0,0,1,.734.409,1.1,1.1,0,0,0,.39-.618h.268v2.96h-.282a4.515,4.515,0,0,0-.155-.861,2.6,2.6,0,0,0-.342-.747,1.659,1.659,0,0,0-.613-.545,2.019,2.019,0,0,0-.949-.2,1.324,1.324,0,0,0-.935.343,1.172,1.172,0,0,0-.014,1.7,6.01,6.01,0,0,0,1.272.828l1.293.659a2.563,2.563,0,0,1,1.063.9,2.124,2.124,0,0,1,.336,1.143,2.391,2.391,0,0,1-.2.99,2.277,2.277,0,0,1-.551.768,2.56,2.56,0,0,1-.815.491,2.8,2.8,0,0,1-.989.175,2.618,2.618,0,0,1-.828-.122,7.84,7.84,0,0,1-.788-.31,2,2,0,0,0-.485-.2A1.1,1.1,0,0,0,330.654,3456.351Z" fill="#2b3147"/>
        </g>
      </g>
      <g id="Grupo_440" data-name="Grupo 440">
        <g id="Grupo_439" data-name="Grupo 439">
          <path id="Trazado_464" data-name="Trazado 464" d="M352.23,3449.863h-.284l-.066-.27a1.506,1.506,0,0,0-.431-.813,2.03,2.03,0,0,0-1.131-.209h-1.763v5.692a5.612,5.612,0,0,0,.047.829.949.949,0,0,0,.181.464.691.691,0,0,0,.378.222,2.988,2.988,0,0,0,.686.062v.282H346.2v-.282a3,3,0,0,0,.687-.062.675.675,0,0,0,.376-.222.939.939,0,0,0,.183-.464,5.776,5.776,0,0,0,.046-.829v-5.692h-1.762a2.03,2.03,0,0,0-1.131.209,1.5,1.5,0,0,0-.431.813l-.068.27h-.282l.121-1.817h8.171Z" fill="#2b3147"/>
        </g>
      </g>
      <g id="Grupo_442" data-name="Grupo 442">
        <g id="Grupo_441" data-name="Grupo 441">
          <path id="Trazado_465" data-name="Trazado 465" d="M367.418,3449.062a.926.926,0,0,0-.175-.457.673.673,0,0,0-.376-.217,3.205,3.205,0,0,0-.694-.059v-.283h3.15v.283a3.086,3.086,0,0,0-.686.059.719.719,0,0,0-.378.217.9.9,0,0,0-.181.457,5.542,5.542,0,0,0-.048.827v3.231a3.092,3.092,0,0,1-.914,2.376,3.581,3.581,0,0,1-4.644,0,3.093,3.093,0,0,1-.915-2.376v-3.231a5.4,5.4,0,0,0-.048-.834.907.907,0,0,0-.175-.45.669.669,0,0,0-.37-.217,3.086,3.086,0,0,0-.686-.059v-.283h3.635v.283a3.119,3.119,0,0,0-.688.059.68.68,0,0,0-.37.217.957.957,0,0,0-.175.45,5.84,5.84,0,0,0-.047.834v3.3a2.591,2.591,0,0,0,.646,1.91,2.305,2.305,0,0,0,1.71.646,2.3,2.3,0,0,0,2.477-2.556v-3.3A5.542,5.542,0,0,0,367.418,3449.062Z" fill="#2b3147"/>
        </g>
      </g>
      <g id="Grupo_444" data-name="Grupo 444">
        <g id="Grupo_443" data-name="Grupo 443">
          <path id="Trazado_466" data-name="Trazado 466" d="M377.748,3455.84a3.02,3.02,0,0,0,.688-.062.651.651,0,0,0,.37-.222,1.009,1.009,0,0,0,.175-.458,5.858,5.858,0,0,0,.046-.835v-4.374a5.867,5.867,0,0,0-.046-.834.957.957,0,0,0-.175-.45.68.68,0,0,0-.37-.217,3.125,3.125,0,0,0-.688-.059v-.283H381.4a5.874,5.874,0,0,1,2,.309,3.779,3.779,0,0,1,1.407.862,3.507,3.507,0,0,1,.821,1.285,4.784,4.784,0,0,1,0,3.163,3.511,3.511,0,0,1-.821,1.286,3.762,3.762,0,0,1-1.407.861,5.849,5.849,0,0,1-2,.31h-3.648Zm2.356-1.778a5.421,5.421,0,0,0,.048.835.968.968,0,0,0,.167.45.634.634,0,0,0,.358.216,2.91,2.91,0,0,0,.679.06h.054a3.489,3.489,0,0,0,1.575-.316,2.521,2.521,0,0,0,.982-.827,3.27,3.27,0,0,0,.491-1.125,5.8,5.8,0,0,0,0-2.543,3.35,3.35,0,0,0-.491-1.131,2.444,2.444,0,0,0-.982-.828,3.561,3.561,0,0,0-1.575-.31H380.1Z" fill="#2b3147"/>
        </g>
      </g>
      <g id="Grupo_446" data-name="Grupo 446">
        <g id="Grupo_445" data-name="Grupo 445">
          <path id="Trazado_467" data-name="Trazado 467" d="M394.977,3456.122v-.282a3.02,3.02,0,0,0,.688-.062.651.651,0,0,0,.37-.222,1.009,1.009,0,0,0,.175-.458,5.858,5.858,0,0,0,.046-.835v-4.374a5.867,5.867,0,0,0-.046-.834.957.957,0,0,0-.175-.45.68.68,0,0,0-.37-.217,3.125,3.125,0,0,0-.688-.059v-.283h3.634v.283a3.1,3.1,0,0,0-.686.059.676.676,0,0,0-.37.217.917.917,0,0,0-.174.45,5.4,5.4,0,0,0-.048.834v4.374a5.391,5.391,0,0,0,.048.835.966.966,0,0,0,.174.458.648.648,0,0,0,.37.222,2.994,2.994,0,0,0,.686.062v.282Z" fill="#2b3147"/>
        </g>
      </g>
      <g id="Grupo_448" data-name="Grupo 448">
        <g id="Grupo_447" data-name="Grupo 447">
          <path id="Trazado_468" data-name="Trazado 468" d="M416.338,3453.726a4.334,4.334,0,0,1-.969,1.372,4.47,4.47,0,0,1-1.439.923,4.64,4.64,0,0,1-1.738.33,4.592,4.592,0,0,1-1.722-.33,4.457,4.457,0,0,1-1.441-.923,4.315,4.315,0,0,1-.968-1.372,4.027,4.027,0,0,1,0-3.284,4.351,4.351,0,0,1,.968-1.374,4.5,4.5,0,0,1,1.441-.922,4.571,4.571,0,0,1,1.722-.328,4.619,4.619,0,0,1,1.738.328,4.517,4.517,0,0,1,1.439.922,4.37,4.37,0,0,1,.969,1.374,4.038,4.038,0,0,1,0,3.284Zm-5.593-5.055a2.887,2.887,0,0,0-1,.882,3.875,3.875,0,0,0-.573,1.211,4.965,4.965,0,0,0-.181,1.32,4.884,4.884,0,0,0,.181,1.312,3.876,3.876,0,0,0,.573,1.205,2.871,2.871,0,0,0,1,.881,3,3,0,0,0,1.447.33,3.036,3.036,0,0,0,1.454-.33,2.868,2.868,0,0,0,1.009-.881,3.855,3.855,0,0,0,.573-1.205,4.884,4.884,0,0,0,.181-1.312,4.965,4.965,0,0,0-.181-1.32,3.854,3.854,0,0,0-.573-1.211,2.883,2.883,0,0,0-1.009-.882,3.047,3.047,0,0,0-1.454-.329A3.01,3.01,0,0,0,410.745,3448.671Z" fill="#2b3147"/>
        </g>
      </g>
    </g>
  </g>
</svg>
